<?xml version="1.0" encoding="utf-8"?>
<!DOCTYPE svg PUBLIC "-//W3C//DTD SVG 1.1//EN" "http://www.w3.org/Graphics/SVG/1.1/DTD/svg11.dtd">
<svg version="1.1" id="Layer_1" xmlns="http://www.w3.org/2000/svg" xmlns:xlink="http://www.w3.org/1999/xlink" x="0px" y="0px"
	 width="1024px" height="1024px" viewBox="0 0 24 24" enable-background="new 0 0 24 24" xml:space="preserve">
<path d="M18.08,16.541c-0.356,0.105-0.64,0.141-1.012,0.141c-3.046,0-7.525-10.651-7.525-14.196c0-1.306,0.311-1.741,0.747-2.114
	c-3.73,0.435-8.208,1.803-9.638,3.544c-0.311,0.435-0.498,1.12-0.498,1.99C0.154,11.441,6.062,24,10.229,24
	c1.928,0,5.179-3.17,7.853-7.46L18.08,16.541z M16.134,0c3.857,0,7.711,0.622,7.711,2.798c0,4.415-2.797,9.763-4.228,9.763
	c-2.55,0-5.721-7.089-5.721-10.634C13.897,0.312,14.519,0,16.134,0z"/>
</svg>
